# xmcd
#
# Track frame offsets: 
#        151
#        19443
#        36698
#        53923
#        78224
#        95255
#        113092
#        123253
#        150322
#        164713
#
# Disc length: 2557 seconds
#
# Revision: 1
# Processed by: cddbd v1.5.2PL0 Copyright (c) Steve Scherf et al.
# Submitted via: ExactAudioCopyFreeDBPlugin 1.0
#
DISCID=7b09fb0a
DTITLE=Rod Piazza - Bacon Fat - Grease One For Me
DYEAR=1969
DGENRE=Blues
TTITLE0=Up The Line
TTITLE1=Boom Boom (Out Goes The Lights)
TTITLE2=Small's On 53rd
TTITLE3=She's A Wrong Women
TTITLE4=I Need Your Love
TTITLE5=Juicy Harmonica
TTITLE6=Nobody But You
TTITLE7=Telephone Blues
TTITLE8=You're So Fine
TTITLE9=Too Late
EXTD=
EXTT0=
EXTT1=
EXTT2=
EXTT3=
EXTT4=
EXTT5=
EXTT6=
EXTT7=
EXTT8=
EXTT9=
PLAYORDER=
